<svg width="277" height="76" viewBox="0 0 277 76" fill="none" xmlns="http://www.w3.org/2000/svg">
<path d="M111.784 33.28C110.675 33.28 109.736 32.8747 108.968 32.064C108.2 31.2534 107.816 30.3574 107.816 29.376L107.624 27.84C107.581 27.1574 107.368 26.5387 106.984 25.984C106.643 25.4294 106.067 24.96 105.256 24.576C104.531 24.1067 103.571 23.872 102.376 23.872C100.968 24 99.944 24.2347 99.304 24.576C98.7067 24.9173 98.1947 25.3867 97.768 25.984C97.512 26.3254 97.32 26.6454 97.192 26.944C97.1067 27.2427 97.0427 27.5414 97 27.84L96.872 29.376C96.9573 29.76 97 30.2934 97 30.976C97.2133 31.7867 97.4693 32.4054 97.768 32.832C98.2373 33.5147 98.8133 34.048 99.496 34.432C100.179 34.7734 101.139 34.944 102.376 34.944C104.893 34.944 107.027 35.4134 108.776 36.352C110.525 37.2907 111.848 38.3787 112.744 39.616C113.896 40.9387 114.664 42.3894 115.048 43.968C115.475 45.4187 115.688 46.848 115.688 48.256C115.688 48.896 115.624 49.6427 115.496 50.496C115.368 51.3067 115.219 52.032 115.048 52.672C114.536 54.2507 113.768 55.7014 112.744 57.024C111.72 58.304 110.355 59.392 108.648 60.288C106.984 61.184 104.893 61.632 102.376 61.632C101.181 61.632 100.051 61.504 98.984 61.248C97.9173 60.992 96.9573 60.672 96.104 60.288C94.3973 59.3494 93.0107 58.24 91.944 56.96C90.92 55.68 90.1733 54.2507 89.704 52.672C89.4053 51.776 89.2133 51.0934 89.128 50.624C89.0427 50.112 89 49.3227 89 48.256C89 47.1894 89.384 46.272 90.152 45.504C91.048 44.736 91.9867 44.352 92.968 44.352C94.0347 44.352 94.952 44.7574 95.72 45.568C96.488 46.3787 96.872 47.2747 96.872 48.256C96.9573 48.5974 97 49.1094 97 49.792C97.2133 50.6027 97.4693 51.2214 97.768 51.648C98.2373 52.3307 98.8133 52.864 99.496 53.248C100.179 53.5894 101.139 53.76 102.376 53.76C103.571 53.76 104.531 53.568 105.256 53.184C106.109 52.6294 106.707 52.0747 107.048 51.52C107.432 50.9227 107.624 50.3467 107.624 49.792C107.752 49.3654 107.816 48.8534 107.816 48.256L107.624 46.72C107.539 46.08 107.304 45.4827 106.92 44.928C106.579 44.3307 106.024 43.84 105.256 43.456C104.531 43.0294 103.571 42.816 102.376 42.816C101.181 42.816 100.051 42.688 98.984 42.432C97.9173 42.176 96.9573 41.856 96.104 41.472C94.3547 40.4907 92.9467 39.3387 91.88 38.016C90.856 36.6934 90.152 35.4347 89.768 34.24C89.4267 33.0027 89.2133 32.0854 89.128 31.488C89.0427 30.848 89 30.144 89 29.376C89.0853 28.5227 89.1707 27.7547 89.256 27.072C89.384 26.3894 89.5333 25.7067 89.704 25.024C90.2587 23.5307 91.0267 22.1013 92.008 20.736C92.5627 20.0533 93.2027 19.4347 93.928 18.88C94.6533 18.2827 95.3787 17.7707 96.104 17.344C97.8533 16.448 99.944 16 102.376 16C103.613 16 104.765 16.128 105.832 16.384C106.899 16.5973 107.816 16.9173 108.584 17.344C110.419 18.2827 111.805 19.4133 112.744 20.736C113.896 22.1013 114.664 23.5307 115.048 25.024C115.475 26.4747 115.688 27.9254 115.688 29.376C115.688 30.4427 115.283 31.36 114.472 32.128C113.661 32.896 112.765 33.28 111.784 33.28Z" fill="white"/>
<path d="M135.146 28.944C137.663 28.944 139.797 29.4134 141.546 30.352C143.295 31.2907 144.618 32.3787 145.514 33.616C146.666 34.9387 147.434 36.3894 147.818 37.968C148.245 39.4187 148.458 40.848 148.458 42.256V51.664C148.458 52.7734 148.053 53.712 147.242 54.48C146.431 55.248 145.535 55.632 144.554 55.632C143.445 55.632 142.506 55.248 141.738 54.48C140.97 53.584 140.586 52.6454 140.586 51.664V42.256L140.394 40.72C140.309 40.08 140.074 39.4827 139.69 38.928C139.349 38.3307 138.794 37.84 138.026 37.456C137.301 37.0294 136.341 36.816 135.146 36.816C133.909 36.816 132.906 37.0294 132.138 37.456C131.711 37.6694 131.391 37.8827 131.178 38.096C131.007 38.2667 130.794 38.5227 130.538 38.864C130.282 39.2054 130.09 39.5254 129.962 39.824C129.877 40.08 129.813 40.3787 129.77 40.72L129.642 42.256C129.727 42.5974 129.77 43.1094 129.77 43.792C129.983 44.6027 130.239 45.2214 130.538 45.648C131.007 46.3307 131.583 46.864 132.266 47.248C132.949 47.5894 133.909 47.76 135.146 47.76C136.213 47.76 137.13 48.1654 137.898 48.976C138.666 49.7867 139.05 50.6827 139.05 51.664C139.05 52.7734 138.645 53.712 137.834 54.48C137.023 55.248 136.127 55.632 135.146 55.632C133.951 55.632 132.821 55.504 131.754 55.248C130.687 54.992 129.727 54.672 128.874 54.288C127.167 53.3494 125.781 52.24 124.714 50.96C123.69 49.68 122.943 48.2507 122.474 46.672C122.175 45.776 121.983 45.0934 121.898 44.624C121.813 44.112 121.77 43.3227 121.77 42.256C121.855 41.36 121.941 40.6134 122.026 40.016C122.154 39.376 122.303 38.6934 122.474 37.968C123.029 36.3894 123.797 34.9387 124.778 33.616C125.93 32.208 127.338 31.0774 129.002 30.224C130.666 29.3707 132.714 28.944 135.146 28.944Z" fill="white"/>
<path d="M200.686 28.944C203.203 28.944 205.337 29.4134 207.086 30.352C208.835 31.2907 210.158 32.3787 211.054 33.616C212.206 34.9387 212.974 36.3894 213.358 37.968C213.785 39.4187 213.998 40.848 213.998 42.256C213.998 42.896 213.934 43.6427 213.806 44.496C213.678 45.3067 213.529 46.032 213.358 46.672C212.846 48.2507 212.078 49.7014 211.054 51.024C210.03 52.304 208.665 53.392 206.958 54.288C205.294 55.184 203.203 55.632 200.686 55.632C199.577 55.632 198.638 55.248 197.87 54.48C197.102 53.584 196.718 52.6454 196.718 51.664C196.718 50.5974 197.102 49.68 197.87 48.912C198.766 48.144 199.705 47.76 200.686 47.76C201.881 47.76 202.841 47.568 203.566 47.184C204.419 46.6294 205.017 46.0747 205.358 45.52C205.742 44.9227 205.934 44.3467 205.934 43.792C206.062 43.3654 206.126 42.8534 206.126 42.256L205.934 40.72C205.849 40.08 205.614 39.4827 205.23 38.928C204.889 38.3307 204.334 37.84 203.566 37.456C202.841 37.0294 201.881 36.816 200.686 36.816C199.449 36.816 198.446 37.0294 197.678 37.456C197.251 37.6694 196.931 37.8827 196.718 38.096C196.547 38.2667 196.334 38.5227 196.078 38.864C195.822 39.2054 195.63 39.5254 195.502 39.824C195.417 40.08 195.353 40.3787 195.31 40.72L195.182 42.256V61.136C195.182 62.2027 194.777 63.12 193.966 63.888C193.155 64.656 192.259 65.04 191.278 65.04C190.169 65.04 189.23 64.6347 188.462 63.824C187.694 63.0134 187.31 62.1174 187.31 61.136V42.256C187.395 41.36 187.481 40.6134 187.566 40.016C187.694 39.376 187.843 38.6934 188.014 37.968C188.569 36.3894 189.337 34.9387 190.318 33.616C191.47 32.208 192.878 31.0774 194.542 30.224C196.206 29.3707 198.254 28.944 200.686 28.944Z" fill="white"/>
<path d="M224.048 16C225.115 16 226.032 16.384 226.8 17.152C227.568 18.048 227.952 18.9867 227.952 19.968V51.664C227.952 52.7734 227.547 53.712 226.736 54.48C225.925 55.248 225.029 55.632 224.048 55.632C222.939 55.632 222 55.248 221.232 54.48C220.464 53.584 220.08 52.6454 220.08 51.664V19.968C220.08 18.8587 220.464 17.92 221.232 17.152C222.128 16.384 223.067 16 224.048 16Z" fill="white"/>
<path d="M256.821 28.944C257.888 28.944 258.805 29.3494 259.573 30.16C260.341 30.9707 260.726 31.8667 260.726 32.848C260.726 33.9574 260.32 34.896 259.51 35.664C258.699 36.432 257.803 36.816 256.821 36.816H247.414L245.878 37.008C245.195 37.0507 244.555 37.264 243.958 37.648C243.36 38.032 242.869 38.608 242.485 39.376C242.101 40.144 241.909 41.104 241.909 42.256C241.909 43.536 242.101 44.5387 242.485 45.264C242.955 45.9467 243.467 46.48 244.021 46.864C244.363 47.12 244.683 47.312 244.982 47.44C245.28 47.5254 245.579 47.5894 245.878 47.632L247.414 47.76H256.821C257.888 47.76 258.805 48.1654 259.573 48.976C260.341 49.7867 260.726 50.6827 260.726 51.664C260.726 52.7734 260.32 53.712 259.51 54.48C258.699 55.248 257.803 55.632 256.821 55.632H247.414C246.56 55.5467 245.792 55.4614 245.109 55.376C244.427 55.248 243.744 55.0987 243.062 54.928C241.568 54.3734 240.139 53.6054 238.773 52.624C238.091 52.0694 237.451 51.4294 236.854 50.704C236.299 49.9787 235.808 49.2534 235.381 48.528C234.485 46.7787 234.037 44.688 234.037 42.256C234.037 41.0187 234.144 39.8667 234.357 38.8C234.613 37.7334 234.955 36.816 235.381 36.048C236.32 34.2134 237.451 32.8267 238.773 31.888C240.139 30.736 241.547 29.968 242.997 29.584C244.491 29.1574 245.963 28.944 247.414 28.944H256.821ZM256.821 38.352C257.888 38.352 258.805 38.7574 259.573 39.568C260.341 40.3787 260.726 41.2747 260.726 42.256C260.726 43.3654 260.32 44.304 259.51 45.072C258.699 45.84 257.803 46.224 256.821 46.224H247.414C246.304 46.224 245.365 45.84 244.597 45.072C243.829 44.176 243.445 43.2374 243.445 42.256C243.445 41.1894 243.829 40.272 244.597 39.504C245.493 38.736 246.432 38.352 247.414 38.352H256.821Z" fill="white"/>
<path d="M157.996 28.944C159.063 28.944 159.98 29.328 160.748 30.096C161.516 30.992 161.9 31.9307 161.9 32.912V51.6081C161.9 52.7174 161.495 53.6561 160.684 54.4241C159.873 55.1921 158.977 55.5761 157.996 55.5761C156.887 55.5761 155.948 55.1921 155.18 54.4241C154.412 53.5281 154.028 52.5894 154.028 51.6081V32.912C154.028 31.8027 154.412 30.864 155.18 30.096C156.076 29.328 157.015 28.944 157.996 28.944Z" fill="white"/>
<path d="M167.996 34.944C169.063 34.944 169.98 35.328 170.748 36.096C171.516 36.992 171.9 37.9307 171.9 38.912V51.6081C171.9 52.7174 171.495 53.6561 170.684 54.4241C169.873 55.1921 168.977 55.5761 167.996 55.5761C166.887 55.5761 165.948 55.1921 165.18 54.4241C164.412 53.5281 164.028 52.5894 164.028 51.6081V38.912C164.028 37.8027 164.412 36.864 165.18 36.096C166.076 35.328 167.015 34.944 167.996 34.944Z" fill="white"/>
<path d="M177.996 28.944C179.063 28.944 179.98 29.328 180.748 30.096C181.516 30.992 181.9 31.9307 181.9 32.912V51.6081C181.9 52.7174 181.495 53.6561 180.684 54.4241C179.873 55.1921 178.977 55.5761 177.996 55.5761C176.887 55.5761 175.948 55.1921 175.18 54.4241C174.412 53.5281 174.028 52.5894 174.028 51.6081V32.912C174.028 31.8027 174.412 30.864 175.18 30.096C176.076 29.328 177.015 28.944 177.996 28.944Z" fill="white"/>
<circle cx="38" cy="38" r="38" fill="white"/>
<path d="M24.5369 19.8879C25.9776 19.8879 27.2166 20.4102 28.2538 21.4548C29.2911 22.6735 29.8098 23.9503 29.8098 25.2851V50.715C29.8098 52.2239 29.2623 53.5006 28.1674 54.5452C27.0725 55.5899 25.8623 56.1122 24.5369 56.1122C23.0386 56.1122 21.7708 55.5899 20.7335 54.5452C19.6962 53.3265 19.1776 52.0498 19.1776 50.715V25.2851C19.1776 23.7762 19.6962 22.4994 20.7335 21.4548C21.9437 20.4102 23.2115 19.8879 24.5369 19.8879Z" fill="#6F00FF"/>
<path d="M38.0432 28.0489C39.4839 28.0489 40.7229 28.5713 41.7602 29.6159C42.7975 30.8346 43.3161 32.1114 43.3161 33.4461V50.715C43.3161 52.2239 42.7687 53.5006 41.6737 54.5452C40.5788 55.5899 39.3687 56.1122 38.0432 56.1122C36.5449 56.1122 35.2771 55.5899 34.2398 54.5452C33.2026 53.3265 32.6839 52.0498 32.6839 50.715V33.4461C32.6839 31.9373 33.2026 30.6605 34.2398 29.6159C35.45 28.5713 36.7178 28.0489 38.0432 28.0489Z" fill="#6F00FF"/>
<path d="M51.5496 19.8879C52.9903 19.8879 54.2292 20.4102 55.2665 21.4548C56.3038 22.6735 56.8224 23.9503 56.8224 25.2851V50.715C56.8224 52.2239 56.275 53.5006 55.1801 54.5452C54.0852 55.5899 52.875 56.1122 51.5496 56.1122C50.0513 56.1122 48.7835 55.5899 47.7462 54.5452C46.7089 53.3265 46.1903 52.0498 46.1903 50.715V25.2851C46.1903 23.7762 46.7089 22.4994 47.7462 21.4548C48.9563 20.4102 50.2242 19.8879 51.5496 19.8879Z" fill="#6F00FF"/>
</svg>
