<svg width="107" height="107" viewBox="0 0 107 107" fill="none" xmlns="http://www.w3.org/2000/svg">
<circle cx="53.5" cy="53.5" r="53.5" fill="white"/>
<path d="M34.5454 28C36.5737 28 38.318 28.7354 39.7784 30.2061C41.2388 31.9219 41.969 33.7194 41.969 35.5987V71.4013C41.969 73.5257 41.1983 75.3232 39.6567 76.7939C38.1152 78.2646 36.4114 79 34.5454 79C32.4359 79 30.651 78.2646 29.1906 76.7939C27.7302 75.0781 27 73.2806 27 71.4013V35.5987C27 33.4743 27.7302 31.6768 29.1906 30.2061C30.8944 28.7354 32.6793 28 34.5454 28Z" fill="#6F00FF"/>
<path d="M53.5609 39.4899C55.5892 39.4899 57.3335 40.2253 58.7939 41.696C60.2543 43.4118 60.9845 45.2094 60.9845 47.0886V71.4013C60.9845 73.5257 60.2138 75.3232 58.6722 76.7939C57.1307 78.2646 55.4269 79 53.5609 79C51.4514 79 49.6665 78.2646 48.2061 76.7939C46.7457 75.0781 46.0155 73.2806 46.0155 71.4013V47.0886C46.0155 44.9642 46.7457 43.1667 48.2061 41.696C49.9099 40.2253 51.6948 39.4899 53.5609 39.4899Z" fill="#6F00FF"/>
<path d="M72.5764 28C74.6047 28 76.349 28.7354 77.8094 30.2061C79.2698 31.9219 80 33.7194 80 35.5987V71.4013C80 73.5257 79.2293 75.3232 77.6877 76.7939C76.1462 78.2646 74.4424 79 72.5764 79C70.4669 79 68.682 78.2646 67.2216 76.7939C65.7612 75.0781 65.031 73.2806 65.031 71.4013V35.5987C65.031 33.4743 65.7612 31.6768 67.2216 30.2061C68.9254 28.7354 70.7103 28 72.5764 28Z" fill="#6F00FF"/>
</svg>
