<svg width="172" height="50" viewBox="0 0 172 50" fill="none" xmlns="http://www.w3.org/2000/svg">
<path d="M22.784 17.28C21.6747 17.28 20.736 16.8747 19.968 16.064C19.2 15.2534 18.816 14.3574 18.816 13.376L18.624 11.84C18.5813 11.1574 18.368 10.5387 17.984 9.98402C17.6427 9.42936 17.0667 8.96002 16.256 8.57602C15.5307 8.10668 14.5707 7.87202 13.376 7.87202C11.968 8.00002 10.944 8.23468 10.304 8.57602C9.70667 8.91735 9.19467 9.38669 8.76801 9.98402C8.51201 10.3254 8.32 10.6454 8.192 10.944C8.10667 11.2427 8.04267 11.5414 8 11.84L7.87201 13.376C7.95734 13.76 8 14.2934 8 14.976C8.21333 15.7867 8.46934 16.4054 8.76801 16.832C9.23734 17.5147 9.81334 18.048 10.496 18.432C11.1787 18.7734 12.1387 18.944 13.376 18.944C15.8933 18.944 18.0267 19.4134 19.776 20.352C21.5253 21.2907 22.848 22.3787 23.744 23.616C24.896 24.9387 25.664 26.3894 26.048 27.968C26.4747 29.4187 26.688 30.848 26.688 32.256C26.688 32.896 26.624 33.6427 26.496 34.496C26.368 35.3067 26.2187 36.032 26.048 36.672C25.536 38.2507 24.768 39.7014 23.744 41.024C22.72 42.304 21.3547 43.392 19.648 44.288C17.984 45.184 15.8933 45.632 13.376 45.632C12.1813 45.632 11.0507 45.504 9.98401 45.248C8.91734 44.992 7.95734 44.672 7.104 44.288C5.39734 43.3494 4.01067 42.24 2.944 40.96C1.92 39.68 1.17333 38.2507 0.703995 36.672C0.405328 35.776 0.213339 35.0934 0.128006 34.624C0.0426726 34.112 0 33.3227 0 32.256C0 31.1894 0.383993 30.272 1.15199 29.504C2.04799 28.736 2.98667 28.352 3.968 28.352C5.03467 28.352 5.952 28.7574 6.72 29.568C7.488 30.3787 7.87201 31.2747 7.87201 32.256C7.95734 32.5974 8 33.1094 8 33.792C8.21333 34.6027 8.46934 35.2214 8.76801 35.648C9.23734 36.3307 9.81334 36.864 10.496 37.248C11.1787 37.5894 12.1387 37.76 13.376 37.76C14.5707 37.76 15.5307 37.568 16.256 37.184C17.1093 36.6294 17.7067 36.0747 18.048 35.52C18.432 34.9227 18.624 34.3467 18.624 33.792C18.752 33.3654 18.816 32.8534 18.816 32.256L18.624 30.72C18.5387 30.08 18.304 29.4827 17.92 28.928C17.5787 28.3307 17.024 27.84 16.256 27.456C15.5307 27.0294 14.5707 26.816 13.376 26.816C12.1813 26.816 11.0507 26.688 9.98401 26.432C8.91734 26.176 7.95734 25.856 7.104 25.472C5.35467 24.4907 3.94666 23.3387 2.87999 22.016C1.85599 20.6934 1.15199 19.4347 0.76799 18.24C0.426657 17.0027 0.213339 16.0854 0.128006 15.488C0.0426726 14.848 0 14.144 0 13.376C0.0853333 12.5227 0.170663 11.7547 0.255997 11.072C0.383997 10.3894 0.533328 9.70669 0.703995 9.02402C1.25866 7.53069 2.02666 6.10134 3.008 4.73601C3.56266 4.05334 4.20268 3.43468 4.92801 2.88001C5.65334 2.28268 6.37867 1.77067 7.104 1.344C8.85334 0.448001 10.944 0 13.376 0C14.6133 0 15.7653 0.128001 16.832 0.384003C17.8987 0.597336 18.816 0.917336 19.584 1.344C21.4187 2.28267 22.8054 3.41334 23.744 4.73601C24.896 6.10134 25.664 7.53069 26.048 9.02402C26.4747 10.4747 26.688 11.9254 26.688 13.376C26.688 14.4427 26.2827 15.36 25.472 16.128C24.6613 16.896 23.7653 17.28 22.784 17.28Z" fill="white"/>
<path d="M46.146 12.944C48.6633 12.944 50.7967 13.4134 52.546 14.352C54.2953 15.2907 55.618 16.3787 56.514 17.616C57.666 18.9387 58.434 20.3894 58.818 21.968C59.2447 23.4187 59.458 24.848 59.458 26.256V35.664C59.458 36.7734 59.0527 37.712 58.242 38.48C57.4313 39.248 56.5353 39.632 55.554 39.632C54.4447 39.632 53.506 39.248 52.738 38.48C51.97 37.584 51.586 36.6454 51.586 35.664V26.256L51.394 24.72C51.3087 24.08 51.074 23.4827 50.69 22.928C50.3487 22.3307 49.794 21.84 49.026 21.456C48.3007 21.0294 47.3407 20.816 46.146 20.816C44.9087 20.816 43.906 21.0294 43.138 21.456C42.7113 21.6694 42.3913 21.8827 42.178 22.096C42.0073 22.2667 41.794 22.5227 41.538 22.864C41.282 23.2054 41.09 23.5254 40.962 23.824C40.8767 24.08 40.8127 24.3787 40.77 24.72L40.642 26.256C40.7273 26.5974 40.77 27.1094 40.77 27.792C40.9833 28.6027 41.2393 29.2214 41.538 29.648C42.0073 30.3307 42.5833 30.864 43.266 31.248C43.9487 31.5894 44.9087 31.76 46.146 31.76C47.2127 31.76 48.13 32.1654 48.898 32.976C49.666 33.7867 50.05 34.6827 50.05 35.664C50.05 36.7734 49.6446 37.712 48.834 38.48C48.0233 39.248 47.1273 39.632 46.146 39.632C44.9513 39.632 43.8207 39.504 42.754 39.248C41.6873 38.992 40.7273 38.672 39.874 38.288C38.1673 37.3494 36.7807 36.24 35.714 34.96C34.69 33.68 33.9433 32.2507 33.474 30.672C33.1753 29.776 32.9833 29.0934 32.898 28.624C32.8127 28.112 32.77 27.3227 32.77 26.256C32.8553 25.36 32.9407 24.6134 33.026 24.016C33.154 23.376 33.3033 22.6934 33.474 21.968C34.0287 20.3894 34.7966 18.9387 35.778 17.616C36.93 16.208 38.338 15.0774 40.002 14.224C41.666 13.3707 43.714 12.944 46.146 12.944Z" fill="white"/>
<path d="M111.686 12.944C114.203 12.944 116.337 13.4134 118.086 14.352C119.835 15.2907 121.158 16.3787 122.054 17.616C123.206 18.9387 123.974 20.3894 124.358 21.968C124.785 23.4187 124.998 24.848 124.998 26.256C124.998 26.896 124.934 27.6427 124.806 28.496C124.678 29.3067 124.529 30.032 124.358 30.672C123.846 32.2507 123.078 33.7014 122.054 35.024C121.03 36.304 119.665 37.392 117.958 38.288C116.294 39.184 114.203 39.632 111.686 39.632C110.577 39.632 109.638 39.248 108.87 38.48C108.102 37.584 107.718 36.6454 107.718 35.664C107.718 34.5974 108.102 33.68 108.87 32.912C109.766 32.144 110.705 31.76 111.686 31.76C112.881 31.76 113.841 31.568 114.566 31.184C115.419 30.6294 116.017 30.0747 116.358 29.52C116.742 28.9227 116.934 28.3467 116.934 27.792C117.062 27.3654 117.126 26.8534 117.126 26.256L116.934 24.72C116.849 24.08 116.614 23.4827 116.23 22.928C115.889 22.3307 115.334 21.84 114.566 21.456C113.841 21.0294 112.881 20.816 111.686 20.816C110.449 20.816 109.446 21.0294 108.678 21.456C108.251 21.6694 107.931 21.8827 107.718 22.096C107.547 22.2667 107.334 22.5227 107.078 22.864C106.822 23.2054 106.63 23.5254 106.502 23.824C106.417 24.08 106.353 24.3787 106.31 24.72L106.182 26.256V45.136C106.182 46.2027 105.777 47.12 104.966 47.888C104.155 48.656 103.259 49.04 102.278 49.04C101.169 49.04 100.23 48.6347 99.462 47.824C98.694 47.0134 98.31 46.1174 98.31 45.136V26.256C98.3953 25.36 98.4806 24.6134 98.566 24.016C98.694 23.376 98.8433 22.6934 99.014 21.968C99.5686 20.3894 100.337 18.9387 101.318 17.616C102.47 16.208 103.878 15.0774 105.542 14.224C107.206 13.3707 109.254 12.944 111.686 12.944Z" fill="white"/>
<path d="M135.048 0C136.115 0 137.032 0.384 137.8 1.152C138.568 2.048 138.952 2.98668 138.952 3.96801V35.664C138.952 36.7734 138.547 37.712 137.736 38.48C136.925 39.248 136.029 39.632 135.048 39.632C133.939 39.632 133 39.248 132.232 38.48C131.464 37.584 131.08 36.6454 131.08 35.664V3.96801C131.08 2.85868 131.464 1.92 132.232 1.152C133.128 0.384 134.067 0 135.048 0Z" fill="white"/>
<path d="M167.821 12.944C168.888 12.944 169.805 13.3494 170.573 14.16C171.341 14.9707 171.726 15.8667 171.726 16.848C171.726 17.9574 171.32 18.896 170.51 19.664C169.699 20.432 168.803 20.816 167.821 20.816H158.414L156.878 21.008C156.195 21.0507 155.555 21.264 154.958 21.648C154.36 22.032 153.869 22.608 153.485 23.376C153.101 24.144 152.909 25.104 152.909 26.256C152.909 27.536 153.101 28.5387 153.485 29.264C153.955 29.9467 154.467 30.48 155.021 30.864C155.363 31.12 155.683 31.312 155.982 31.44C156.28 31.5254 156.579 31.5894 156.878 31.632L158.414 31.76H167.821C168.888 31.76 169.805 32.1654 170.573 32.976C171.341 33.7867 171.726 34.6827 171.726 35.664C171.726 36.7734 171.32 37.712 170.51 38.48C169.699 39.248 168.803 39.632 167.821 39.632H158.414C157.56 39.5467 156.792 39.4614 156.109 39.376C155.427 39.248 154.744 39.0987 154.062 38.928C152.568 38.3734 151.139 37.6054 149.773 36.624C149.091 36.0694 148.451 35.4294 147.854 34.704C147.299 33.9787 146.808 33.2534 146.381 32.528C145.485 30.7787 145.037 28.688 145.037 26.256C145.037 25.0187 145.144 23.8667 145.357 22.8C145.613 21.7334 145.955 20.816 146.381 20.048C147.32 18.2134 148.451 16.8267 149.773 15.888C151.139 14.736 152.547 13.968 153.997 13.584C155.491 13.1574 156.963 12.944 158.414 12.944H167.821ZM167.821 22.352C168.888 22.352 169.805 22.7574 170.573 23.568C171.341 24.3787 171.726 25.2747 171.726 26.256C171.726 27.3654 171.32 28.304 170.51 29.072C169.699 29.84 168.803 30.224 167.821 30.224H158.414C157.304 30.224 156.365 29.84 155.597 29.072C154.829 28.176 154.445 27.2374 154.445 26.256C154.445 25.1894 154.829 24.272 155.597 23.504C156.493 22.736 157.432 22.352 158.414 22.352H167.821Z" fill="white"/>
<path d="M68.996 12.944C70.0627 12.944 70.98 13.328 71.748 14.096C72.516 14.992 72.9 15.9307 72.9 16.912V35.6081C72.9 36.7174 72.4947 37.6561 71.684 38.4241C70.8734 39.1921 69.9773 39.5761 68.996 39.5761C67.8867 39.5761 66.948 39.1921 66.18 38.4241C65.412 37.5281 65.028 36.5894 65.028 35.6081V16.912C65.028 15.8027 65.412 14.864 66.18 14.096C67.076 13.328 68.0147 12.944 68.996 12.944Z" fill="white"/>
<path d="M78.996 18.944C80.0627 18.944 80.98 19.328 81.748 20.096C82.516 20.992 82.9 21.9307 82.9 22.912V35.6081C82.9 36.7174 82.4947 37.6561 81.684 38.4241C80.8734 39.1921 79.9773 39.5761 78.996 39.5761C77.8867 39.5761 76.948 39.1921 76.18 38.4241C75.412 37.5281 75.028 36.5894 75.028 35.6081V22.912C75.028 21.8027 75.412 20.864 76.18 20.096C77.076 19.328 78.0147 18.944 78.996 18.944Z" fill="white"/>
<path d="M88.996 12.944C90.0626 12.944 90.98 13.328 91.748 14.096C92.516 14.992 92.9 15.9307 92.9 16.912V35.6081C92.9 36.7174 92.4947 37.6561 91.684 38.4241C90.8734 39.1921 89.9773 39.5761 88.996 39.5761C87.8866 39.5761 86.948 39.1921 86.18 38.4241C85.412 37.5281 85.028 36.5894 85.028 35.6081V16.912C85.028 15.8027 85.412 14.864 86.18 14.096C87.076 13.328 88.0146 12.944 88.996 12.944Z" fill="white"/>
</svg>
