<svg width="47" height="49" viewBox="0 0 47 49" fill="none" xmlns="http://www.w3.org/2000/svg">
<rect width="47" height="49" rx="10" fill="#1E1E1E"/>
<path d="M21.982 24.5L27.966 18.72C28.2575 18.4179 28.4161 18.0183 28.4086 17.6054C28.401 17.1925 28.2279 16.7985 27.9256 16.5065C27.6233 16.2145 27.2154 16.0473 26.7879 16.04C26.3605 16.0327 25.9468 16.186 25.634 16.4675L18.484 23.3737C18.175 23.6726 18.0014 24.0776 18.0014 24.5C18.0014 24.9223 18.175 25.3274 18.484 25.6262L25.634 32.5325C25.9468 32.814 26.3605 32.9673 26.7879 32.96C27.2154 32.9527 27.6233 32.7854 27.9256 32.4934C28.2279 32.2014 28.401 31.8075 28.4086 31.3946C28.4161 30.9817 28.2575 30.5821 27.966 30.28L21.982 24.5Z" fill="white"/>
</svg>
